<?xml version="1.0" encoding="utf-8"?>
<!-- Generator: Adobe Illustrator 27.0.1, SVG Export Plug-In . SVG Version: 6.00 Build 0)  -->
<svg version="1.1" id="Layer_1" xmlns="http://www.w3.org/2000/svg" xmlns:xlink="http://www.w3.org/1999/xlink" x="0px" y="0px"
	 viewBox="0 0 200 200" style="enable-background:new 0 0 200 200;" xml:space="preserve">
<style type="text/css">
	.st0{fill:#FFFFFF;}
	.st1{fill:#1D2227;}
	.st2{fill:#FFB9F0;}
	.st3{fill:#FFBAAE;}
	.st4{fill:#008B4A;}
	.st5{fill:#F7F30B;}
</style>
<g id="XMLID_00000176038317797779035950000014140036018669869216_">
	<g>
		<path class="st0" d="M170.55,80.87c1.31,4.9-1.07,9.61-3.28,12.69l-4.49,6.25l4.49,6.25c2.21,3.09,4.6,7.79,3.28,12.69
			c-1.31,4.9-5.73,7.79-9.2,9.35l-7.01,3.16l0.76,7.67c0.38,3.77,0.09,9.04-3.5,12.63c-3.01,2.99-7.23,3.64-10.23,3.64
			c-0.78,0-1.59-0.05-2.41-0.14l-7.65-0.76l-3.16,7.01c-1.56,3.47-4.45,7.88-9.35,9.2c-0.93,0.24-1.89,0.37-2.87,0.37
			c-3.1,0-6.51-1.25-9.82-3.65l-6.25-4.49l-6.25,4.49c-3.33,2.4-6.72,3.65-9.84,3.65c-0.98,0-1.94-0.12-2.86-0.37
			c-4.9-1.31-7.79-5.73-9.36-9.2l-3.16-7.01l-7.65,0.76c-0.82,0.09-1.63,0.14-2.41,0.14c-3.01,0-7.23-0.64-10.22-3.64
			c-3.59-3.59-3.9-8.86-3.51-12.63l0.78-7.67l-7.03-3.16c-3.47-1.56-7.87-4.45-9.18-9.35s1.05-9.61,3.28-12.69l4.49-6.25l-4.49-6.25
			c-2.23-3.09-4.6-7.79-3.28-12.69c1.31-4.9,5.71-7.79,9.18-9.36l7.03-3.16l-0.78-7.65c-0.38-3.79-0.08-9.04,3.51-12.63
			c2.99-3.01,7.21-3.64,10.22-3.64c0.78,0,1.6,0.05,2.41,0.12l7.65,0.78l3.16-7.03c1.57-3.47,4.46-7.87,9.36-9.18
			c0.92-0.24,1.88-0.38,2.86-0.38c3.12,0,6.51,1.27,9.84,3.67l6.25,4.49l6.25-4.49c3.31-2.4,6.72-3.67,9.82-3.67
			c0.98,0,1.94,0.14,2.87,0.38c4.9,1.31,7.79,5.71,9.35,9.18l3.16,7.03l7.65-0.78c0.82-0.08,1.63-0.12,2.41-0.12
			c3.01,0,7.23,0.63,10.23,3.64c3.59,3.59,3.88,8.84,3.5,12.63l-0.76,7.65l7.01,3.16C164.82,73.08,169.23,75.97,170.55,80.87z"/>
		<path class="st1" d="M99.85,10.88c49.11,0,88.94,39.82,88.94,88.94s-39.82,88.94-88.94,88.94c-49.13,0-88.94-39.82-88.94-88.94
			S50.72,10.88,99.85,10.88z M167.26,93.56c2.21-3.09,4.6-7.79,3.28-12.69c-1.31-4.9-5.73-7.79-9.2-9.36l-7.01-3.16l0.76-7.65
			c0.38-3.79,0.09-9.04-3.5-12.63c-3.01-3.01-7.23-3.64-10.23-3.64c-0.78,0-1.59,0.05-2.41,0.12l-7.65,0.78l-3.16-7.03
			c-1.56-3.47-4.45-7.87-9.35-9.18c-0.93-0.24-1.89-0.38-2.87-0.38c-3.1,0-6.51,1.27-9.82,3.67l-6.25,4.49L93.6,32.4
			c-3.33-2.4-6.72-3.67-9.84-3.67c-0.98,0-1.94,0.14-2.86,0.38c-4.9,1.31-7.79,5.71-9.36,9.18l-3.16,7.03l-7.65-0.78
			c-0.81-0.08-1.63-0.12-2.41-0.12c-3.01,0-7.23,0.63-10.22,3.64c-3.59,3.59-3.9,8.84-3.51,12.63l0.78,7.65l-7.03,3.16
			c-3.47,1.57-7.87,4.46-9.18,9.36c-1.31,4.9,1.05,9.61,3.28,12.69l4.49,6.25l-4.49,6.25c-2.23,3.09-4.6,7.79-3.28,12.69
			s5.71,7.79,9.18,9.35l7.03,3.16l-0.78,7.67c-0.38,3.77-0.08,9.04,3.51,12.63c2.99,2.99,7.21,3.64,10.22,3.64
			c0.78,0,1.59-0.05,2.41-0.14l7.65-0.76l3.16,7.01c1.57,3.47,4.46,7.88,9.36,9.2c0.92,0.24,1.88,0.37,2.86,0.37
			c3.12,0,6.51-1.25,9.84-3.65l6.25-4.49l6.25,4.49c3.31,2.4,6.72,3.65,9.82,3.65c0.98,0,1.94-0.12,2.87-0.37
			c4.9-1.31,7.79-5.73,9.35-9.2l3.16-7.01l7.65,0.76c0.82,0.09,1.63,0.14,2.41,0.14c3.01,0,7.23-0.64,10.23-3.64
			c3.59-3.59,3.88-8.86,3.5-12.63l-0.76-7.67l7.01-3.16c3.47-1.56,7.88-4.45,9.2-9.35c1.31-4.9-1.07-9.61-3.28-12.69l-4.49-6.25
			L167.26,93.56z"/>
	</g>
	<g>
	</g>
</g>
<g>
	<path class="st0" d="M78.93,137.75c-9.85,0-17.86-8.01-17.86-17.86c0-9.85,8.01-17.87,17.86-17.87s17.86,8.01,17.86,17.87
		C96.79,129.74,88.78,137.75,78.93,137.75z"/>
	<g>
		<g>
			<path class="st2" d="M78.93,105.92c8.17,0,14.81,6.64,14.81,14.81c0,8.17-6.64,14.81-14.81,14.81c-8.17,0-14.81-6.64-14.81-14.81
				C64.12,112.56,70.76,105.92,78.93,105.92 M78.93,99.81L78.93,99.81c-11.55,0-20.92,9.37-20.92,20.92
				c0,11.55,9.37,20.92,20.92,20.92h0c11.55,0,20.92-9.37,20.92-20.92C99.85,109.17,90.48,99.81,78.93,99.81L78.93,99.81z"/>
		</g>
	</g>
	<g>
		<rect x="99.85" y="98.97" class="st3" width="41.84" height="41.84"/>
	</g>
	<g>
		<rect x="99.85" y="57.97" class="st0" width="41.84" height="41.84"/>
	</g>
	<g>
		<polygon class="st0" points="120.37,66.47 133.19,66.47 133.19,79.29 		"/>
		<polygon class="st4" points="141.69,57.97 99.85,57.97 141.69,99.81 141.69,57.97 		"/>
	</g>
	<g>
		<path class="st5" d="M99.85,57.97c-23.11,0-41.84,18.73-41.84,41.84l41.84,0L99.85,57.97z"/>
	</g>
</g>
</svg>
